<?xml version="1.0" encoding="utf-8"?>
<!-- Generator: Adobe Illustrator 22.0.1, SVG Export Plug-In . SVG Version: 6.00 Build 0)  -->
<!DOCTYPE svg PUBLIC "-//W3C//DTD SVG 1.1//EN" "http://www.w3.org/Graphics/SVG/1.1/DTD/svg11.dtd">
<svg version="1.1" id="Capa_1" xmlns="http://www.w3.org/2000/svg" xmlns:xlink="http://www.w3.org/1999/xlink" x="0px" y="0px"
	 viewBox="0 0 512 512" style="enable-background:new 0 0 512 512;" xml:space="preserve">
<style type="text/css">
	.st0{fill:#CED5D9;}
</style>
<path class="st0" d="M256,0C114.6,0,0,114.6,0,256c0,141.4,114.6,256,256,256s256-114.6,256-256C512,114.6,397.4,0,256,0z M255,125
	c17.7,0,32,14.3,32,32c0,17.7-14.3,32-32,32s-32-14.3-32-32C223,139.3,237.3,125,255,125z M303,381h-96c-8.8,0-16-7.2-16-16
	c0-8.8,7.2-16,16-16h16v-96h-16c-8.8,0-16-7.2-16-16c0-8.8,7.2-16,16-16h64c8.8,0,16,7.2,16,16v112h16c8.8,0,16,7.2,16,16
	C319,373.8,311.8,381,303,381z"/>
</svg>
