<?xml version="1.0" encoding="utf-8"?>
<!-- Generator: Adobe Illustrator 22.0.1, SVG Export Plug-In . SVG Version: 6.00 Build 0)  -->
<!DOCTYPE svg PUBLIC "-//W3C//DTD SVG 1.1//EN" "http://www.w3.org/Graphics/SVG/1.1/DTD/svg11.dtd">
<svg version="1.1" id="Layer_1" xmlns="http://www.w3.org/2000/svg" xmlns:xlink="http://www.w3.org/1999/xlink" x="0px" y="0px"
	 viewBox="0 0 32 25.4" style="enable-background:new 0 0 32 25.4;" xml:space="preserve">
<style type="text/css">
	.st0{fill:#FFFFFF;}
</style>
<title>Monogram</title>
<desc>Created with Sketch.</desc>
<g>
	<path class="st0" d="M31.8,0.5L29.3,3C29.1,3.2,29,3.4,29,3.7v18c0,0.3,0.1,0.5,0.3,0.7l2.5,2.4v0.5H19.2v-0.5l2.6-2.5
		c0.3-0.3,0.3-0.3,0.3-0.7V7.1l-7.2,18.3h-1L5.5,7.1v12.2c-0.1,0.5,0.1,1,0.5,1.4l3.4,4.1v0.5h-9.5v-0.5l3.4-4.1
		c0.4-0.4,0.5-0.9,0.4-1.4V5.2c0-0.4-0.1-0.8-0.4-1l-3-3.6V0h9.3l7.2,15.7L23,0h8.8V0.5z"/>
</g>
</svg>
