<?xml version="1.0" encoding="utf-8"?>
<!-- Generator: Adobe Illustrator 22.0.1, SVG Export Plug-In . SVG Version: 6.00 Build 0)  -->
<!DOCTYPE svg PUBLIC "-//W3C//DTD SVG 1.1//EN" "http://www.w3.org/Graphics/SVG/1.1/DTD/svg11.dtd">
<svg version="1.1" id="Layer_1" xmlns="http://www.w3.org/2000/svg" xmlns:xlink="http://www.w3.org/1999/xlink" x="0px" y="0px"
	 viewBox="0 0 32 32.8" style="enable-background:new 0 0 32 32.8;" xml:space="preserve">
<style type="text/css">
	.st0{fill:#FFFFFF;}
</style>
<title>Monogram</title>
<desc>Created with Sketch.</desc>
<g>
	<path class="st0" d="M30.3,32.8H1.7V16.5h1.9v14.5h24.8v-2.1h1.9V32.8z"/>
	<g>
		<path class="st0" d="M32,13.1h-3.4l0-13.1L10.8,0C10.8,0,0,10.4,0,10.4c0,0.5,0,1.7,0,1.7h11.8l0-10.2h14.9v11.2H11.2v12.4H32
			V13.1z M30.1,23.6h-17V15h17V23.6z"/>
		<path class="st0" d="M15.4,16.7c0-0.2,0.2-0.4,0.5-0.4h1.7c1.1,0,1.9,0.5,1.9,1.9v0c0,1.4-0.9,1.9-2,1.9h-0.8v1.8
			c0,0.3-0.3,0.4-0.6,0.4c-0.3,0-0.6-0.1-0.6-0.4L15.4,16.7L15.4,16.7z M16.6,17.4v1.7h0.8c0.5,0,0.7-0.3,0.7-0.8v-0.1
			c0-0.6-0.3-0.8-0.7-0.8L16.6,17.4L16.6,17.4z"/>
		<path class="st0" d="M22,16.3c1.1,0,2,0.5,2,1.9v2.1c0,1.4-0.9,1.9-2,1.9h-1.4c-0.3,0-0.6-0.2-0.6-0.4v-5.2c0-0.2,0.2-0.4,0.6-0.4
			L22,16.3L22,16.3z M21.3,17.4v3.8H22c0.5,0,0.7-0.3,0.7-0.8v-2.1c0-0.6-0.3-0.8-0.7-0.8L21.3,17.4L21.3,17.4z"/>
		<path class="st0" d="M24.8,16.7c0-0.3,0.3-0.4,0.6-0.4h2.8c0.3,0,0.4,0.3,0.4,0.5c0,0.3-0.1,0.6-0.4,0.6h-2.1v1.4h1.2
			c0.2,0,0.4,0.2,0.4,0.5c0,0.2-0.1,0.5-0.4,0.5h-1.2v2.1c0,0.3-0.3,0.4-0.6,0.4c-0.3,0-0.6-0.1-0.6-0.4L24.8,16.7L24.8,16.7z"/>
	</g>
</g>
</svg>
