<?xml version="1.0" encoding="utf-8"?>
<!-- Generator: Adobe Illustrator 22.0.1, SVG Export Plug-In . SVG Version: 6.00 Build 0)  -->
<!DOCTYPE svg PUBLIC "-//W3C//DTD SVG 1.1//EN" "http://www.w3.org/Graphics/SVG/1.1/DTD/svg11.dtd">
<svg version="1.1" id="Layer_1" xmlns="http://www.w3.org/2000/svg" xmlns:xlink="http://www.w3.org/1999/xlink" x="0px" y="0px"
	 viewBox="0 0 345.8 102" style="enable-background:new 0 0 345.8 102;" xml:space="preserve">
<style type="text/css">
	.st0{opacity:0.15;fill:#FFFFFF;}
	.st1{fill:#FFFFFF;}
</style>
<g>
	<path class="st0" d="M52.2,100.4C25,100.4,2.8,78.3,2.8,51S25,1.6,52.2,1.6s49.4,22.2,49.4,49.4S79.5,100.4,52.2,100.4z M52.2,5.5
		C27.1,5.5,6.7,25.9,6.7,51c0,25.1,20.4,45.6,45.6,45.6S97.8,76.2,97.8,51C97.8,25.9,77.4,5.5,52.2,5.5z"/>
	<path class="st1" d="M52.2,100.4C25,100.4,2.8,78.3,2.8,51S25,1.6,52.2,1.6c13.7,0,26.9,5.7,36.2,15.8L85.6,20
		C77,10.7,64.9,5.4,52.2,5.4C27.1,5.4,6.7,25.9,6.7,51c0,25.1,20.4,45.6,45.6,45.6c12.6,0,24.7-5.3,33.3-14.5l2.8,2.6
		C79.1,94.7,65.9,100.4,52.2,100.4z"/>
	<polygon class="st1" points="69.6,53.4 50.2,53.4 50.2,23.7 54.1,23.7 54.1,49.6 69.6,49.6 	"/>
	<g>
		<path class="st1" d="M131.7,27.5c0.1-7.7,5.8-12.9,12.9-12.8c4.5,0,7.6,2.2,9.6,5.1l-2.6,1.4c-1.4-2.1-4-3.7-6.9-3.7
			c-5.4-0.1-9.6,4.1-9.6,10.1c-0.1,5.9,4.1,10.2,9.4,10.3c3,0,5.6-1.4,7-3.6l2.6,1.5c-2.1,2.8-5.2,4.9-9.7,4.9
			C137.2,40.5,131.6,35.2,131.7,27.5z"/>
		<path class="st1" d="M187.1,29.1l-14.6-0.2l-0.1,11.5l-3.1,0l0.3-25l3.1,0l-0.1,10.8l14.6,0.2l0.1-10.8l3.1,0l-0.3,25l-3.1,0
			L187.1,29.1z"/>
		<path class="st1" d="M215.4,30.9l-5-0.1l-0.1,9.9l-3.1,0l0.3-25l10.1,0.1c4.6,0,7.8,3,7.8,7.6c0,4.5-3.2,6.9-6.6,7.2l6.6,10.3
			l-3.7,0L215.4,30.9z M217.1,18.6l-6.6-0.1l-0.1,9.6l6.6,0.1c3,0,5-1.9,5-4.8C222.1,20.6,220.1,18.6,217.1,18.6z"/>
		<path class="st1" d="M252.9,15.8c7.4,0.1,12.4,5.7,12.3,13.1c-0.1,7.4-5.2,12.9-12.6,12.8c-7.4-0.1-12.4-5.7-12.3-13.1
			C240.5,21.2,245.5,15.7,252.9,15.8z M252.9,18.6c-5.6-0.1-9.2,4.2-9.3,10.1c-0.1,5.8,3.5,10.2,9.1,10.3c5.6,0.1,9.2-4.3,9.3-10.1
			C262.1,23,258.5,18.6,252.9,18.6z"/>
		<path class="st1" d="M284.6,21.4l-0.2,20.2l-3.1,0l0.3-25l3.2,0l14.2,19.9l0.2-19.8l3.1,0l-0.3,25l-3,0L284.6,21.4z"/>
		<path class="st1" d="M330.7,16.6c7.4,0.1,12.4,5.7,12.3,13.1c-0.1,7.4-5.2,12.9-12.6,12.8c-7.4-0.1-12.4-5.7-12.3-13.1
			C318.2,22.1,323.3,16.6,330.7,16.6z M330.7,19.4c-5.6-0.1-9.2,4.2-9.3,10.1c-0.1,5.8,3.5,10.2,9.1,10.3c5.6,0.1,9.2-4.3,9.3-10.1
			C339.8,23.8,336.3,19.5,330.7,19.4z"/>
	</g>
	<g>
		<path class="st1" d="M132.4,60l3.1,0l-0.2,22.3l11.6,0.1l0,2.8L132.1,85L132.4,60z"/>
		<path class="st1" d="M172.9,60c7.4,0.1,12.4,5.7,12.3,13.1c-0.1,7.4-5.2,12.9-12.6,12.8c-7.4-0.1-12.4-5.7-12.3-13.1
			C160.4,65.4,165.5,59.9,172.9,60z M172.9,62.8c-5.6-0.1-9.2,4.2-9.3,10.1c-0.1,5.8,3.5,10.2,9.1,10.3c5.6,0.1,9.2-4.3,9.3-10.1
			C182,67.2,178.5,62.8,172.9,62.8z"/>
		<path class="st1" d="M213.3,60.4c4.4,0,7.5,2,9.7,4.8l-2.5,1.5c-1.6-2-4.2-3.5-7.2-3.5c-5.5-0.1-9.7,4.1-9.8,10.1
			c-0.1,5.9,4.1,10.3,9.5,10.3c3,0,5.5-1.4,6.7-2.6l0.1-5.1l-8.6-0.1l0-2.8l11.7,0.1l-0.1,9c-2.4,2.6-5.8,4.3-9.9,4.2
			c-7.1-0.1-12.8-5.4-12.7-13.1C200.4,65.5,206.2,60.4,213.3,60.4z"/>
		<path class="st1" d="M239.4,61.1l3.1,0l-0.3,25l-3.1,0L239.4,61.1z"/>
		<path class="st1" d="M258.5,73.9c0.1-7.7,5.8-12.9,12.9-12.8c4.5,0,7.6,2.2,9.6,5.1l-2.6,1.4c-1.4-2.1-4-3.7-6.9-3.7
			c-5.4-0.1-9.6,4.1-9.6,10.1c-0.1,5.9,4.1,10.2,9.4,10.3c3,0,5.6-1.4,7-3.6l2.6,1.5c-2.1,2.8-5.2,4.9-9.7,4.9
			C264,86.9,258.4,81.6,258.5,73.9z"/>
	</g>
</g>
</svg>
