<?xml version="1.0" encoding="utf-8"?>
<!-- Generator: Adobe Illustrator 22.0.1, SVG Export Plug-In . SVG Version: 6.00 Build 0)  -->
<!DOCTYPE svg PUBLIC "-//W3C//DTD SVG 1.1//EN" "http://www.w3.org/Graphics/SVG/1.1/DTD/svg11.dtd">
<svg version="1.1" id="Layer_1" xmlns="http://www.w3.org/2000/svg" xmlns:xlink="http://www.w3.org/1999/xlink" x="0px" y="0px"
	 viewBox="0 0 32 32" style="enable-background:new 0 0 32 32;" xml:space="preserve">
<style type="text/css">
	.st0{opacity:0.15;fill:#FFFFFF;}
	.st1{fill:#FFFFFF;}
</style>
<title>Monogram</title>
<desc>Created with Sketch.</desc>
<g>
	<path class="st0" d="M16,32C7.2,32,0,24.8,0,16S7.2,0,16,0s16,7.2,16,16S24.8,32,16,32z M16,1.2C7.9,1.2,1.2,7.8,1.2,16
		c0,8.1,6.6,14.8,14.8,14.8S30.8,24.1,30.8,16C30.8,7.8,24.1,1.2,16,1.2z"/>
	<path class="st1" d="M16,31.9c-8.8,0-16-7.2-16-16s7.2-16,16-16c4.4,0,8.7,1.9,11.7,5.1l-0.9,0.8C24,2.9,20.1,1.2,16,1.2
		C7.9,1.2,1.2,7.8,1.2,15.9c0,8.1,6.6,14.8,14.8,14.8c4.1,0,8-1.7,10.8-4.7l0.9,0.8C24.7,30.1,20.4,31.9,16,31.9z"/>
	<polygon class="st1" points="21.6,16.7 15.4,16.7 15.4,7.1 16.6,7.1 16.6,15.5 21.6,15.5 	"/>
</g>
</svg>
